<?xml version="1.0" encoding="UTF-8" standalone="no"?>
<svg
   id="Ebene_3"
   data-name="Ebene 3"
   viewBox="0 0 128 128"
   version="1.1"
   width="128"
   height="128"
   xmlns="http://www.w3.org/2000/svg"
   xmlns:svg="http://www.w3.org/2000/svg">
  <defs
     id="defs7">
    <style
       id="style2">.cls-1,.cls-3,.cls-5,.cls-6,.cls-7,.cls-8{fill:none;}.cls-2{clip-path:url(#clip-path);}.cls-3,.cls-5,.cls-6,.cls-7,.cls-8{stroke:#4d7091;}.cls-3{stroke-width:1.5px;}.cls-4{fill:#4d7091;}.cls-5,.cls-7,.cls-8{stroke-linecap:round;}.cls-5,.cls-6,.cls-7,.cls-8{stroke-linejoin:round;}.cls-5{stroke-width:0.28px;}.cls-6,.cls-7{stroke-width:1.121px;}.cls-8{stroke-width:0.561px;}</style>
    <clipPath
       id="clip-path">
      <rect
         class="cls-1"
         x="19.450171"
         y="15.53718"
         width="219.899"
         height="65.976997"
         id="rect4" />
    </clipPath>
    <clipPath
       clipPathUnits="userSpaceOnUse"
       id="clipPath353">
      <g
         id="g357">
        <rect
           class="cls-1"
           x="19.450171"
           y="15.53718"
           width="219.899"
           height="65.976997"
           id="rect355" />
      </g>
    </clipPath>
    <clipPath
       clipPathUnits="userSpaceOnUse"
       id="clipPath359">
      <g
         id="g363">
        <rect
           class="cls-1"
           x="19.450171"
           y="15.53718"
           width="219.899"
           height="65.976997"
           id="rect361" />
      </g>
    </clipPath>
  </defs>
  <path
     class="cls-4"
     d="m 46.94417,36.90188 c 0,0 -13.657,-0.636 -17.76,10.491 0,0 -3.986,12.109 9.395,18.799 a 31.4357,31.4357 0 0 0 27.091,-0.636 16.99088,16.99088 0 0 0 6.706,-6.401 15.09924,15.09924 0 0 0 -0.666,-16.328 27.83548,27.83548 0 0 0 -6.358,-5.723 53.35379,53.35379 0 0 0 -5.15,-3.179 c -2.695,-1.452 -5.927,-2.767 -7.377,-4.175 0,0 -3.919,-3.077 -3.497,-9.697 0,0 -2.891,7.037 2.832,12.283 a 26.67974,26.67974 0 0 0 5.976,4.037 c 0.16,0.083 1.876,1.081 3.274,2.003 3.527,2.324 8.393,5.404 8.423,11.719 a 12.40887,12.40887 0 0 1 -2.573,7.991 16.07549,16.07549 0 0 1 -7.185,5.721 c 0,0 -8.71,3.561 -17.264,0.116 0,0 -10.774,-4.248 -9.63,-15.248 a 9.95713,9.95713 0 0 1 2.035,-4.808 19.07247,19.07247 0 0 1 11.728,-6.965"
     id="path11"
     clip-path="url(#clipPath359)"
     transform="matrix(1.9466277,0,0,1.9483454,-36.313211,-21.957255)"
     style="stroke-width:0.513482" />
  <path
     class="cls-5"
     d="m 46.94417,36.90188 c 0,0 -13.657,-0.636 -17.76,10.491 0,0 -3.986,12.109 9.395,18.799 a 31.4357,31.4357 0 0 0 27.091,-0.636 16.99088,16.99088 0 0 0 6.706,-6.401 15.09924,15.09924 0 0 0 -0.666,-16.328 27.83548,27.83548 0 0 0 -6.358,-5.723 53.35379,53.35379 0 0 0 -5.15,-3.179 c -2.695,-1.452 -5.927,-2.767 -7.377,-4.175 0,0 -3.919,-3.077 -3.497,-9.697 0,0 -2.891,7.037 2.832,12.283 a 26.67974,26.67974 0 0 0 5.976,4.037 c 0.16,0.083 1.876,1.081 3.274,2.003 3.527,2.324 8.393,5.404 8.423,11.719 a 12.40887,12.40887 0 0 1 -2.573,7.991 16.07549,16.07549 0 0 1 -7.185,5.721 c 0,0 -8.71,3.561 -17.264,0.116 0,0 -10.774,-4.248 -9.63,-15.248 a 9.95713,9.95713 0 0 1 2.035,-4.808 19.07247,19.07247 0 0 1 11.728,-6.965 z"
     id="path13"
     clip-path="url(#clipPath353)"
     transform="matrix(1.9466277,0,0,1.9483454,-36.313211,-21.957255)" />
  <rect
     class="cls-4"
     x="69.484383"
     y="69.572472"
     width="17.233494"
     height="3.3219292"
     id="rect17"
     style="stroke-width:1" />
  <rect
     class="cls-6"
     x="69.484383"
     y="69.572472"
     width="17.233494"
     height="3.3219292"
     id="rect19" />
  <g
     class="cls-2"
     clip-path="url(#clip-path)"
     id="g33"
     transform="matrix(1.9466277,0,0,1.9483454,-36.313211,-21.957255)"
     style="stroke-width:0.513482">
    <path
       class="cls-4"
       d="m 29.36157,37.23068 c 0,0 -9.392,5.143 -9.348,15.292 a 17.195,17.195 0 0 0 10.892,15.866 c 0,0 -9.209,-6.303 -8.83,-16.655 0,0 -0.01,-7.663 7.286,-14.503"
       id="path21"
       style="stroke-width:0.513482" />
    <path
       class="cls-7"
       d="m 29.36157,37.23068 c 0,0 -9.392,5.143 -9.348,15.292 a 17.195,17.195 0 0 0 10.892,15.866 c 0,0 -9.209,-6.303 -8.83,-16.655 0,0 -0.01,-7.663 7.286,-14.503 z"
       id="path23" />
    <path
       class="cls-4"
       d="m 74.14467,37.20048 c 0,0 9.254,5.387 8.944,15.531 a 17.19635,17.19635 0 0 1 -11.303,15.576 c 0,0 9.371,-6.06 9.263,-16.419 0,0 0.21,-7.659 -6.904,-14.688"
       id="path25"
       style="stroke-width:0.513482" />
    <path
       class="cls-7"
       d="m 74.14467,37.20048 c 0,0 9.254,5.387 8.944,15.531 a 17.19635,17.19635 0 0 1 -11.303,15.576 c 0,0 9.371,-6.06 9.263,-16.419 0,0 0.21,-7.659 -6.904,-14.688 z"
       id="path27" />
    <path
       class="cls-4"
       d="m 51.09588,58.15578 c 0,0 -5.86,-0.459 -9.202,-4.312 0,0 -2.224,-2.092 -2.731,-7.209 -0.092,-0.923 -2.647,5.589 2.847,10.522 a 13.51161,13.51161 0 0 0 9.074,3.366 c 0,0 0,-0.233 0.012,-2.367"
       id="path29"
       style="stroke-width:0.513482" />
    <path
       class="cls-8"
       d="m 51.09588,58.15578 c 0,0 -5.86,-0.459 -9.202,-4.312 0,0 -2.224,-2.092 -2.731,-7.209 -0.092,-0.923 -2.647,5.589 2.847,10.522 a 13.51161,13.51161 0 0 0 9.074,3.366 c 0,0 0,-0.233 0.012,-2.367 z"
       id="path31" />
  </g>
</svg>
